<svg version="1.1" id="__3oAu8V___Layer_1" xmlns="http://www.w3.org/2000/svg" xmlns:xlink="http://www.w3.org/1999/xlink" x="0px" y="0px" viewBox="0 0 40 40" style="enable-background:new 0 0 40 40;fill:#ff8b00;" xml:space="preserve" class="h-full text-orange fill-current"><path id="__3oAu8V___path-1_1_" d="M39.8,15c-0.4-1-1.2-1.6-2-1.8L27,11.6l-4.6-10C22,0.6,21,0,20,0s-2,0.6-2.4,1.6l-4.6,10L2.2,13.2 c-1,0.2-1.8,0.8-2,1.8c-0.4,1,0,2,0.6,2.6l7.8,8L6.8,36.9c-0.2,1,0.2,2,1,2.6s1.8,0.6,2.8,0.2l9.4-5.2l9.4,5.2 c0.8,0.4,2,0.4,2.8-0.2c0.8-0.6,1.2-1.6,1-2.6l-1.8-11.2l7.8-8C40,17.1,40.2,15.8,39.8,15"></path></svg>